<?xml version="1.0" encoding="utf-8"?>
<!-- Generator: Adobe Illustrator 25.2.0, SVG Export Plug-In . SVG Version: 6.00 Build 0)  -->
<svg version="1.1" id="Layer_1" xmlns="http://www.w3.org/2000/svg" xmlns:xlink="http://www.w3.org/1999/xlink" x="0px" y="0px"
	 viewBox="0 0 144 103.9" style="enable-background:new 0 0 144 103.9;" xml:space="preserve">
<style type="text/css">
	.st0{fill:none;stroke:#4C1E1E;stroke-width:3;stroke-miterlimit:10;}
</style>
<g>
	<g>
		<path class="st0" d="M56.8,94.6c-2.1,0.3-4.2,0.5-6.4,0.5c-23.7,0-42.9-19.4-42.9-43.1c0-0.1,0,0.1,0,0s0,0.1,0,0
			c0-23.7,19.2-43.1,42.9-43.1c23.7,0,42.9,19.2,42.9,42.9c0,0.1,0,0.2,0,0.4v-0.4c0,0.1,0,0.2,0,0.4c0,15.2-7.9,28.6-19.8,36.2"/>
		<line class="st0" x1="51.6" y1="49.9" x2="71.9" y2="67.2"/>
		<path class="st0" d="M55.4,32.6c0,0,7.3,5.7,16.4,14.3"/>
		<line class="st0" x1="92.1" y1="49.9" x2="71.9" y2="67.2"/>
		<path class="st0" d="M88.3,32.6c0,0-7.3,5.7-16.4,14.3"/>
		<path class="st0" d="M87.3,9.4c2.1-0.3,4.1-0.5,6.3-0.5c23.7,0,42.9,19.2,42.9,42.9c0,0.1,0,0.2,0,0.4v-0.4c0,0.1,0,0.2,0,0.4
			c0,23.7-19.2,42.9-42.9,42.9c-23.7,0-42.9-19.4-42.9-43.1c0-0.1,0,0.1,0,0s0,0.1,0,0c0-15.6,8.4-29.4,20.9-36.9"/>
		<line class="st0" x1="71.9" y1="15.4" x2="71.9" y2="88.2"/>
	</g>
</g>
</svg>
