<?xml version="1.0" encoding="utf-8"?>
<!-- Generator: Adobe Illustrator 25.2.0, SVG Export Plug-In . SVG Version: 6.00 Build 0)  -->
<svg version="1.1" id="Layer_1" xmlns="http://www.w3.org/2000/svg" xmlns:xlink="http://www.w3.org/1999/xlink" x="0px" y="0px"
	 viewBox="0 0 629.6 584.6" style="enable-background:new 0 0 629.6 584.6;" xml:space="preserve">
<style type="text/css">
	.st0{fill:#FFF5E9;stroke:#D03A42;stroke-width:3.2016;stroke-miterlimit:10;}
	.st1{fill:none;}
</style>
<path class="st0" d="M577.2,10.1c0-1.8,0.1-3.6,0.3-5.4H61.3c0.2,1.8,0.3,3.6,0.3,5.4c0,27.8-22.5,50.3-50.3,50.3
	c-1.5,0-2.9-0.1-4.3-0.2V530c1.4-0.1,2.9-0.2,4.3-0.2c27.6,0,50,22.2,50.3,49.7h515.6c0.3-26,20.3-47.2,45.7-49.5V60.3
	C597.3,57.9,577.2,36.4,577.2,10.1z"/>
<rect x="56.9" y="269.5" class="st1" width="516" height="264.2"/>
</svg>
