<?xml version="1.0" encoding="utf-8"?>
<!-- Generator: Adobe Illustrator 25.2.0, SVG Export Plug-In . SVG Version: 6.00 Build 0)  -->
<svg version="1.1" id="Layer_1" xmlns="http://www.w3.org/2000/svg" xmlns:xlink="http://www.w3.org/1999/xlink" x="0px" y="0px"
	 viewBox="0 0 629.6 616.6" style="enable-background:new 0 0 629.6 616.6;" xml:space="preserve">
<style type="text/css">
	.st0{fill:#FFF5E9;stroke:#D03A42;stroke-width:3.2016;stroke-miterlimit:10;}
	.st1{fill:#D03A42;}
	.st2{fill:#FFF5E9;}
	.st3{font-family:'Cabin-Bold';}
	.st4{font-size:36.6144px;}
	.st5{fill:none;stroke:#4C1E1E;stroke-width:3;stroke-miterlimit:10;}
	.st6{fill:#4C1E1E;}
	.st7{fill:none;}
	.st8{fill:#52191B;}
	.st9{font-family:'Cabin-Regular';}
	.st10{font-size:22.8622px;}
</style>
<path class="st0" d="M577.2,42.1c0-1.8,0.1-3.6,0.3-5.4H61.3c0.2,1.8,0.3,3.6,0.3,5.4c0,27.8-22.5,50.3-50.3,50.3
	c-1.5,0-2.9-0.1-4.3-0.2V562c1.4-0.1,2.9-0.2,4.3-0.2c27.6,0,50,22.2,50.3,49.7h515.6c0.3-26,20.3-47.2,45.7-49.5V92.3
	C597.3,89.9,577.2,68.4,577.2,42.1z"/>
<polygon class="st1" points="411.4,67.1 216.9,67.1 200,35.6 217.9,6.4 411.9,6.4 429.9,36.1 "/>
<text transform="matrix(1 0 0 1 248.1541 48.218)" class="st2 st3 st4 level">LEVEL 1</text>
<g>
	<g>
		<path class="st5" d="M299.8,180.9c-2.1,0.3-4.2,0.5-6.4,0.5c-23.7,0-42.9-19.4-42.9-43.1c0-0.1,0,0.1,0,0c0-0.1,0,0.1,0,0
			c0-23.7,19.2-43.1,42.9-43.1c23.7,0,42.9,19.2,42.9,42.9c0,0.1,0,0.2,0,0.4v-0.4c0,0.1,0,0.2,0,0.4c0,15.2-7.9,28.6-19.8,36.2"/>
		<line class="st5" x1="294.6" y1="136.2" x2="314.9" y2="153.5"/>
		<path class="st5" d="M298.4,118.9c0,0,7.3,5.7,16.4,14.3"/>
		<line class="st5" x1="335.1" y1="136.2" x2="314.9" y2="153.5"/>
		<path class="st5" d="M331.3,118.9c0,0-7.3,5.7-16.4,14.3"/>
		<path class="st5" d="M330.3,95.7c2.1-0.3,4.1-0.5,6.3-0.5c23.7,0,42.9,19.2,42.9,42.9c0,0.1,0,0.2,0,0.4v-0.4c0,0.1,0,0.2,0,0.4
			c0,23.7-19.2,42.9-42.9,42.9c-23.7,0-42.9-19.4-42.9-43.1c0-0.1,0,0.1,0,0c0-0.1,0,0.1,0,0c0-15.6,8.4-29.4,20.9-36.9"/>
		<line class="st5" x1="314.9" y1="101.7" x2="314.9" y2="174.5"/>
	</g>
</g>
<g>
	<g>
		<path class="st6" d="M94.9,256.9c0.2-1.7,0.7-2.9,1.6-3.7c0.9-0.8,2.1-1.3,3.6-1.5c1.5-0.2,3.1-0.4,4.8-0.4c0.7-1.5,1.4-3.3,2-5.4
			c0.6-2.1,1.3-4.3,1.9-6.7c0.6-2.4,1.2-4.8,1.8-7.3c0.6-2.5,1.1-4.9,1.6-7.2c0.5-2.3,1-4.4,1.5-6.4c0.5-1.9,0.9-3.5,1.3-4.8
			c-2,0-3.8,0.1-5.3,0.2s-3,0.3-4.4,0.5c-1.4,0.2-2.8,0.4-4.2,0.7c0.4-2,1.7-3.4,3.7-4.2c2-0.9,5.1-1.3,9.3-1.3
			c2.1,0,4.2,0.1,6.5,0.2c2.2,0.2,4.3,0.3,6.2,0.5c1.9,0.2,3.3,0.4,4.4,0.5c-1.3,1.3-2.6,2-3.8,2.3c-1.2,0.3-2.2,0.4-3,0.4
			c-1.3,0-2.4,0-3.4,0s-2,0-2.9,0.1c-0.3,1.3-0.6,3-0.9,4.9c-0.3,1.9-0.7,4-1.1,6.2c-0.4,2.2-0.8,4.4-1.2,6.6
			c-0.4,2.2-0.8,4.2-1.2,6.1c-0.4,1.9-0.7,3.5-1.1,4.7c-0.5,2-1.1,3.9-1.8,5.6c-0.7,1.7-1.5,3-2.4,3.8c2.1,0.2,4.2,0.4,6.3,0.6
			c2.1,0.2,4.4,0.4,7,0.5c-1.6,1.4-3,2.4-4.5,2.7c-1.4,0.4-2.6,0.6-3.5,0.6c-2.6,0-4.8,0-6.5,0c-1.7,0-3.3,0.1-4.5,0.1
			c-1.3,0.1-2.5,0.2-3.7,0.3C97.8,256.4,96.4,256.6,94.9,256.9z"/>
		<path class="st6" d="M145.3,252.9c-1.5,0-2.7-0.4-3.5-1.1c-0.8-0.8-1.2-1.7-1.2-2.9c0-0.8,0.1-1.6,0.4-2.5
			c0.3-0.9,0.5-1.8,0.8-2.7c0.3-0.9,0.4-1.8,0.4-2.6c0-0.9-0.2-1.5-0.6-1.8c-0.4-0.3-0.9-0.5-1.4-0.5c-1.2,0-2.4,0.5-3.6,1.4
			c-1.2,1-2.4,2.2-3.6,3.6c-1.2,1.4-2.2,3-3.3,4.5c-1,1.6-1.9,3-2.6,4.2c-0.7,0-1.4-0.1-2.1-0.4c-0.7-0.3-1.2-0.7-1.7-1.3
			c0-0.2,0.3-0.8,0.7-1.8c0.4-1,0.9-2.2,1.4-3.6c0.5-1.4,1-2.8,1.3-4.4c0.4-1.5,0.6-2.9,0.6-4.2c0.3-0.3,0.7-0.6,1.3-0.9
			c0.6-0.3,1.2-0.5,1.8-0.5c1.4,0,2.1,0.6,2.1,1.8c0,0.5-0.1,1.2-0.3,2.1c-0.2,0.9-0.4,2-0.7,3.1c1-1.4,2.1-2.7,3.3-3.9
			c1.2-1.2,2.5-2.2,3.8-3c1.3-0.8,2.6-1.1,4-1.1c1.7,0,2.9,0.6,3.7,1.7c0.8,1.1,1.2,2.4,1.2,3.8c0,1.2-0.2,2.3-0.6,3.3
			c-0.4,1-0.8,2-1.1,2.9c-0.4,0.9-0.6,1.8-0.6,2.6c0,0.6,0.1,1.1,0.4,1.3c0.3,0.3,0.6,0.4,1,0.4c0.9,0,1.9-0.4,2.9-1.3
			c1-0.9,2-2,2.9-3.4c0.9-1.4,1.7-2.8,2.4-4.2l1,0.8c-0.8,1.9-1.8,3.7-2.8,5.2c-1,1.6-2.2,2.9-3.5,3.8
			C148.2,252.4,146.8,252.9,145.3,252.9z"/>
		<path class="st6" d="M160.1,254.7c-2,0-3.5-0.4-4.7-1.2c-1.2-0.8-2-1.8-2.6-3c-0.5-1.2-0.8-2.5-0.8-3.8c0-1.1,0.2-2,0.5-2.6
			c0.3-0.6,0.7-1.1,1.2-1.4c0.5-0.3,0.9-0.5,1.3-0.7c0.4-0.2,0.7-0.3,0.9-0.5c1-1,2-2.2,3-3.5c1-1.3,1.9-2.8,2.7-4.5v-0.6
			c0-1.6,0.3-2.7,0.8-3.3c0.5-0.6,1.1-1,1.8-1c0.5,0,0.8,0.1,1,0.4c0.2,0.2,0.3,0.5,0.4,0.8c0,0.2,0,0.5-0.1,0.8
			c-0.1,0.3-0.1,0.7-0.1,1.3c0,1.2,0.3,2.5,0.9,4c0.6,1.5,1.1,3.1,1.7,4.8c0.6,1.7,0.9,3.4,0.9,5.2c0,0.5,0,0.9-0.1,1.3
			c0,0.4-0.1,0.8-0.2,1.1c1.2-0.3,2.4-1,3.6-2c1.2-1,2.3-2.6,3.3-4.6l0.7,0.5c-0.7,2.2-1.8,4-3.2,5.4c-1.4,1.3-3,2.2-4.9,2.5
			c-0.6,1.6-1.7,2.8-3.1,3.6C163.5,254.3,161.9,254.7,160.1,254.7z M159.7,252.1c0.8,0,1.5-0.2,2.2-0.6c0.7-0.4,1.2-1,1.6-1.7
			c-1.6-0.4-3-1-4.3-1.9c-1.3-0.9-2.3-1.8-3-2.8c-0.5,0.1-0.8,0.6-0.8,1.6c0,1.3,0.4,2.5,1.1,3.6
			C157.1,251.5,158.2,252.1,159.7,252.1z M163.9,248.1c0.1-0.3,0.1-0.6,0.1-1c0-0.4,0-0.7,0-0.9c0-1.8-0.3-3.5-0.7-5.2
			c-0.4-1.7-0.9-3.5-1.3-5.3c-0.7,1.2-1.5,2.5-2.5,3.9c-0.9,1.4-1.8,2.5-2.6,3.4c0.6,1.1,1.5,2.1,2.8,3S162.3,247.7,163.9,248.1z"/>
		<path class="st6" d="M179.2,254.4c-1.7,0-3.1-0.5-4.2-1.5c-1.1-1-1.6-2.6-1.6-4.6c0-1.6,0.3-3.6,0.9-6c0.6-2.4,1.4-4.8,2.3-7.4
			c-0.3-0.1-0.6-0.1-1-0.2c-0.4-0.1-0.7-0.2-1.1-0.3v-1.8c0.6,0.1,1.1,0.1,1.6,0.2c0.4,0,0.8,0.1,1.3,0.1c0.8-2.1,1.7-4.1,2.7-6
			c1-1.9,1.9-3.7,2.9-5.2c1-1.5,1.9-2.7,2.7-3.6c0.9-0.9,1.6-1.3,2.3-1.3c0.4,0,0.8,0.1,1.1,0.4c0.4,0.3,0.5,0.7,0.5,1.3
			c0,0.8-0.4,1.9-1.2,3.3c-0.8,1.4-1.8,3.1-3,5.1c-1.2,1.9-2.3,4-3.4,6.2c0.3,0,0.6,0,0.9,0c0.3,0,0.6,0,0.9,0c1.7,0,3.3,0,4.7-0.1
			s2.8-0.2,4.3-0.3v1.9c-2.2,0.2-4.1,0.4-5.9,0.5c-1.8,0.1-3.5,0.2-5.2,0.2c-0.1,0-0.2,0-0.4,0s-0.2,0-0.4,0
			c-0.8,1.9-1.5,3.9-2.1,5.9c-0.6,2-0.9,4-0.9,5.9c0,1.6,0.3,2.7,0.8,3.4c0.5,0.7,1.3,1,2.4,1c2,0,4-0.9,6-2.7
			c2.1-1.8,3.8-4.2,5.4-7.2l0.8,0.6c-1,2.3-2.3,4.4-3.8,6.3c-1.5,1.9-3.1,3.4-4.9,4.4C182.9,253.9,181,254.4,179.2,254.4z"/>
		<path class="st6" d="M195.4,253.5c-1.7,0-3-0.5-3.9-1.5c-0.9-1-1.3-2.2-1.3-3.7c0-0.9,0.2-2,0.5-3.4c0.3-1.4,0.8-2.8,1.3-4.3
			c0.6-1.5,1.2-2.9,2-4.3c0.7-1.3,1.5-2.4,2.4-3.3c0.9-0.8,1.7-1.3,2.6-1.3c0.5,0,0.9,0.1,1.2,0.4c0.4,0.3,0.5,0.7,0.5,1.3
			c0,0.5-0.3,1.3-0.9,2.3c-0.6,1-1.3,2.2-2.1,3.5c-0.8,1.3-1.5,2.7-2.1,4.1c-0.6,1.4-0.9,2.8-0.9,4.1c0,1.3,0.2,2.1,0.7,2.5
			c0.4,0.4,1.1,0.6,2,0.6c1.3,0,2.8-0.7,4.3-2c1.6-1.3,3.2-3.7,4.9-7l0.9,0.9c-1.4,3.4-3.1,6.1-5.2,8
			C200.1,252.5,197.8,253.5,195.4,253.5z M202.3,227c-0.7,0-1.4-0.2-2-0.6c-0.6-0.4-0.9-0.9-0.9-1.7c0-0.9,0.5-1.7,1.5-2.4
			c1-0.7,2.1-1,3.2-1c0.7,0,1.3,0.2,1.8,0.5c0.5,0.3,0.7,0.9,0.7,1.7s-0.5,1.6-1.3,2.4C204.4,226.6,203.4,227,202.3,227z"/>
		<path class="st6" d="M224.8,252.9c-1.5,0-2.7-0.4-3.5-1.1c-0.8-0.8-1.2-1.7-1.2-2.9c0-0.8,0.1-1.6,0.4-2.5
			c0.3-0.9,0.5-1.8,0.8-2.7c0.3-0.9,0.4-1.8,0.4-2.6c0-0.9-0.2-1.5-0.6-1.8c-0.4-0.3-0.9-0.5-1.4-0.5c-1.2,0-2.4,0.5-3.6,1.4
			c-1.2,1-2.4,2.2-3.6,3.6c-1.2,1.4-2.2,3-3.3,4.5c-1,1.6-1.9,3-2.6,4.2c-0.7,0-1.4-0.1-2.1-0.4c-0.7-0.3-1.2-0.7-1.7-1.3
			c0-0.2,0.3-0.8,0.7-1.8c0.4-1,0.9-2.2,1.4-3.6c0.5-1.4,1-2.8,1.3-4.4c0.4-1.5,0.6-2.9,0.6-4.2c0.3-0.3,0.7-0.6,1.3-0.9
			c0.6-0.3,1.2-0.5,1.8-0.5c1.4,0,2.1,0.6,2.1,1.8c0,0.5-0.1,1.2-0.3,2.1c-0.2,0.9-0.4,2-0.7,3.1c1-1.4,2.1-2.7,3.3-3.9
			c1.2-1.2,2.5-2.2,3.8-3c1.3-0.8,2.6-1.1,4-1.1c1.7,0,2.9,0.6,3.7,1.7c0.8,1.1,1.2,2.4,1.2,3.8c0,1.2-0.2,2.3-0.6,3.3
			c-0.4,1-0.8,2-1.1,2.9c-0.4,0.9-0.6,1.8-0.6,2.6c0,0.6,0.1,1.1,0.4,1.3c0.3,0.3,0.6,0.4,1,0.4c0.9,0,1.9-0.4,2.9-1.3
			c1-0.9,2-2,2.9-3.4c0.9-1.4,1.7-2.8,2.4-4.2l1,0.8c-0.8,1.9-1.8,3.7-2.8,5.2c-1,1.6-2.2,2.9-3.5,3.8
			C227.8,252.4,226.3,252.9,224.8,252.9z"/>
		<path class="st6" d="M239.4,255c-2,0-3.7-0.6-5-1.9c-1.3-1.3-2-3.2-2-5.8c0-1.9,0.4-3.8,1.1-5.6c0.7-1.8,1.7-3.5,3-5
			c1.3-1.5,2.6-2.6,4.2-3.5c1.5-0.9,3.1-1.3,4.7-1.3c1.6,0,2.8,0.4,3.5,1.2c0.7,0.8,1.1,1.8,1.1,2.9c0,1.1-0.3,2.2-0.8,3.2
			c-0.5,1-1.2,1.6-2.1,1.6c-0.7,0-1.3-0.4-1.8-1.1c0.4-0.3,0.8-0.8,1.2-1.5c0.4-0.7,0.6-1.7,0.6-2.9c0-0.3-0.1-0.6-0.2-0.7
			c-0.2-0.2-0.5-0.3-0.9-0.3c-1,0-2,0.4-3.1,1.3c-1.1,0.9-2.1,2-3,3.4c-0.9,1.4-1.7,2.9-2.2,4.4c-0.6,1.5-0.9,3-0.9,4.3
			c0,1.1,0.3,2.1,0.9,3c0.6,0.9,1.7,1.4,3.3,1.4c1.5,0,3-0.4,4.6-1.3c1.6-0.9,3.1-2.1,4.5-3.6c1.4-1.5,2.5-3.4,3.4-5.5l1.2,1.1
			c-0.9,2.4-2.2,4.5-3.9,6.4c-1.7,1.9-3.5,3.3-5.5,4.4C243.4,254.5,241.4,255,239.4,255z"/>
		<path class="st6" d="M257.6,254.4c-1.7,0-3.1-0.5-4.2-1.5c-1.1-1-1.6-2.6-1.6-4.6c0-1.6,0.3-3.6,0.9-6c0.6-2.4,1.4-4.8,2.3-7.4
			c-0.3-0.1-0.6-0.1-1-0.2c-0.4-0.1-0.7-0.2-1.1-0.3v-1.8c0.6,0.1,1.1,0.1,1.6,0.2c0.4,0,0.8,0.1,1.3,0.1c0.8-2.1,1.7-4.1,2.7-6
			c1-1.9,1.9-3.7,2.9-5.2c1-1.5,1.9-2.7,2.7-3.6c0.9-0.9,1.6-1.3,2.3-1.3c0.4,0,0.8,0.1,1.1,0.4c0.4,0.3,0.5,0.7,0.5,1.3
			c0,0.8-0.4,1.9-1.2,3.3c-0.8,1.4-1.8,3.1-3,5.1c-1.2,1.9-2.3,4-3.4,6.2c0.3,0,0.6,0,0.9,0c0.3,0,0.6,0,0.9,0c1.7,0,3.3,0,4.7-0.1
			s2.8-0.2,4.3-0.3v1.9c-2.2,0.2-4.1,0.4-5.9,0.5c-1.8,0.1-3.5,0.2-5.2,0.2c-0.1,0-0.2,0-0.4,0s-0.2,0-0.4,0
			c-0.8,1.9-1.5,3.9-2.1,5.9c-0.6,2-0.9,4-0.9,5.9c0,1.6,0.3,2.7,0.8,3.4c0.5,0.7,1.3,1,2.4,1c2,0,4-0.9,6-2.7
			c2.1-1.8,3.8-4.2,5.4-7.2l0.8,0.6c-1,2.3-2.3,4.4-3.8,6.3c-1.5,1.9-3.1,3.4-4.9,4.4C261.3,253.9,259.5,254.4,257.6,254.4z"/>
		<path class="st6" d="M273.6,253.5c-1.3,0-2.4-0.6-3.3-1.8c-0.8-1.2-1.3-2.6-1.3-4.3c0-1.1,0.2-2.4,0.5-3.9
			c0.4-1.5,0.8-2.9,1.4-4.3c0.6-1.4,1.2-2.6,1.8-3.5c0.6-0.9,1.2-1.4,1.7-1.4c0.3,0,0.7,0.1,1.3,0.4c0.6,0.3,1.1,0.7,1.5,1.1
			c-0.4,0.6-0.9,1.6-1.6,2.9c-0.6,1.3-1.1,2.7-1.6,4.2c-0.5,1.5-0.7,2.8-0.7,4c0,0.2,0,0.5,0.1,1.1s0.2,1.1,0.4,1.6
			c0.2,0.5,0.6,0.8,1.2,0.8c0.7,0,1.4-0.4,2.1-1.1c0.8-0.7,1.5-1.7,2.3-2.8c0.8-1.2,1.6-2.4,2.3-3.7c0.8-1.3,1.4-2.6,2.1-3.9
			c0.6-1.3,1.1-2.3,1.5-3.2c0.4,0,0.8,0.1,1.4,0.3c0.6,0.2,1.1,0.4,1.5,0.6c0.4,0.3,0.6,0.6,0.6,1.1c0,0.1-0.2,0.6-0.6,1.4
			c-0.4,0.8-0.8,1.8-1.3,3c-0.5,1.2-0.9,2.4-1.3,3.6c-0.4,1.2-0.6,2.3-0.6,3.3c0,0.5,0.1,1,0.3,1.4c0.2,0.4,0.6,0.6,1.3,0.6
			c0.8,0,1.8-0.4,2.9-1.1c1.1-0.7,2.3-1.8,3.5-3.2c1.2-1.4,2.3-3.1,3.2-5l0.9,0.7c-0.9,2.1-2,4-3.3,5.7c-1.4,1.7-2.8,3-4.4,4
			c-1.6,1-3.1,1.4-4.6,1.4c-1.1,0-2-0.3-2.6-0.8c-0.6-0.5-0.9-1.2-1.1-2.1c-0.2-0.8-0.3-1.7-0.4-2.6c0-0.2,0-0.4,0-0.6
			c0-0.2,0-0.4,0-0.6c-0.7,1.1-1.4,2.1-2.2,3.1c-0.8,1-1.6,1.8-2.5,2.5C275.5,253.1,274.6,253.5,273.6,253.5z"/>
		<path class="st6" d="M298.3,254.5c-1.3,0-2.4-0.4-3.4-1.3c-1-0.9-1.4-2.1-1.4-3.9c0-1.4,0.3-2.9,0.9-4.5c0.6-1.6,1.5-3.2,2.6-4.8
			c1.1-1.6,2.3-3,3.8-4.3c1.4-1.3,2.9-2.3,4.5-3.1c1.6-0.8,3.2-1.2,4.8-1.2c1.7,0,3.1,0.4,4.3,1.3c1.2,0.9,1.8,2,1.8,3.4
			c0,1.1-0.4,1.8-1.1,2.3c-0.7,0.5-1.6,0.6-2.6,0.4c0.1-0.4,0.1-0.7,0.2-1.1s0.1-0.7,0.1-1.1c0-0.8-0.2-1.5-0.5-2.1
			c-0.3-0.6-1-0.9-2-0.9c-1.1,0-2.2,0.4-3.3,1.1c-1.1,0.7-2.2,1.7-3.3,2.9c-1,1.2-2,2.5-2.8,3.9c-0.8,1.4-1.5,2.8-1.9,4.2
			c-0.5,1.4-0.7,2.6-0.7,3.7c0,1.3,0.4,1.9,1.3,1.9s1.9-0.4,3-1.3s2.2-2,3.3-3.3c1.1-1.3,2.2-2.7,3.2-4.1c1-1.4,1.9-2.6,2.6-3.5
			c0.1-0.2,0.3-0.3,0.5-0.3c0.2,0,0.5,0.1,0.9,0.3c0.4,0.1,0.9,0.3,1.3,0.6c0.4,0.3,0.6,0.6,0.6,1.1c0,0.4-0.2,0.9-0.5,1.5
			c-0.3,0.6-0.7,1.3-1.2,2c-0.5,0.7-0.8,1.4-1.2,2.2c-0.3,0.7-0.5,1.4-0.5,2.1c0,0.5,0.1,1,0.4,1.4c0.3,0.4,0.7,0.7,1.3,0.7
			c0.9,0,2.3-0.7,4-2.1c1.7-1.4,3.4-3.7,5.2-7.1l1.1,1.1c-0.9,2.1-2.1,4-3.4,5.6c-1.3,1.6-2.7,2.9-4.1,3.8c-1.4,0.9-2.9,1.4-4.4,1.4
			c-1.6,0-2.8-0.5-3.6-1.5c-0.8-1-1.2-2.1-1.3-3.3c0-0.1,0-0.1,0-0.2c0,0,0-0.1,0-0.1c-1.6,1.9-3,3.4-4.3,4.5
			C301.2,253.9,299.8,254.5,298.3,254.5z"/>
		<path class="st6" d="M326.1,253.5c-1.8,0-3.1-0.6-3.8-1.8c-0.7-1.2-1.1-2.7-1.1-4.4c0-1.9,0.4-4.2,1.1-6.7s1.6-5.3,2.8-8.1
			c1.2-2.8,2.4-5.6,3.8-8.3c1.4-2.7,2.8-5.2,4.2-7.4c1.4-2.2,2.7-3.9,3.9-5.2c1.2-1.3,2.2-2,2.9-2c0.5,0,0.9,0.3,1.3,0.8
			c0.4,0.5,0.6,1.2,0.8,1.9c0.2,0.7,0.3,1.4,0.3,2c0,1.1-0.3,2.4-0.8,4.1c-0.5,1.7-1.3,3.6-2.2,5.6c-1,2-2.1,4.1-3.4,6.2
			c-1.3,2.1-2.8,4.2-4.3,6.1c-1.6,1.9-3.3,3.6-5.1,5c-0.2,1-0.3,1.9-0.4,2.9c-0.1,1-0.2,1.8-0.2,2.6c0,1.4,0.2,2.4,0.7,3.1
			c0.5,0.6,1.1,1,1.8,1c1,0,2-0.5,3-1.4c1-0.9,2-2.1,3-3.5c1-1.4,1.8-2.9,2.5-4.4l1.4,0.8c-1.7,3.5-3.6,6.2-5.6,8.2
			C330.6,252.5,328.4,253.5,326.1,253.5z M327.5,237.6c1.3-1.4,2.6-3,3.8-4.7c1.2-1.7,2.3-3.4,3.3-5.2s1.9-3.5,2.6-5.1
			c0.7-1.6,1.3-3.1,1.7-4.4c0.4-1.3,0.6-2.4,0.7-3.1c0,0,0-0.1,0-0.1c0,0,0,0,0-0.1c-0.3,0-0.8,0.4-1.5,1.3
			c-0.7,0.9-1.5,2.1-2.4,3.6s-1.9,3.3-2.9,5.2c-1,2-2,4-2.9,6.2C329,233.3,328.2,235.5,327.5,237.6z"/>
		<path class="st6" d="M364.4,256.8c-2.3,0-4.4-0.4-6.5-1.2c-2.1-0.8-3.7-2-5-3.6c-1.3-1.6-1.9-3.6-1.9-6c0-2.1,0.5-3.8,1.4-5
			c0.9-1.2,2.1-2,3.5-2.5c1.4-0.5,2.8-0.7,4.1-0.7c-1.3,1.3-2.2,2.7-2.8,4.1c-0.6,1.4-1,2.8-1,4c0,1.3,0.3,2.6,1,3.7
			c0.7,1.2,1.7,2.1,3.1,2.8c1.4,0.7,3.1,1.1,5.1,1.1c1.8,0,3.5-0.3,5.1-0.9s3-1.5,4.1-2.6s1.6-2.6,1.6-4.4c0-1.6-0.5-3-1.4-4.1
			c-0.9-1.2-2.1-2.2-3.5-3.1c-1.4-0.9-3-1.8-4.6-2.6c-1.6-0.8-3.1-1.7-4.6-2.7c-1.4-1-2.6-2.1-3.5-3.4c-0.9-1.3-1.4-2.8-1.4-4.6
			c0-1.6,0.4-3.3,1.2-5.1c0.8-1.8,1.9-3.5,3.4-5.1c1.5-1.6,3.3-2.9,5.4-3.9s4.5-1.5,7-1.5c2.7,0,4.6,0.6,5.7,1.7
			c1.1,1.1,1.6,2.6,1.6,4.5c0,1.4-0.3,3-0.8,4.6c-0.5,1.6-1.1,3.2-1.8,4.7c-0.7,1.5-1.4,2.8-2.1,3.8c-0.9-0.2-1.5-0.5-1.9-1
			c-0.4-0.5-0.6-1.1-0.6-2c0-0.8,0.2-1.7,0.5-2.8c0.3-1,0.7-2.1,1.2-3.2c0.4-1.1,0.8-2.2,1.2-3.2c0.3-1,0.5-1.9,0.5-2.7
			c0-0.7-0.2-1.3-0.6-1.6c-0.4-0.4-1.2-0.6-2.5-0.6c-1.9,0-3.6,0.4-5.2,1.2c-1.6,0.8-2.9,1.9-4.1,3.1c-1.2,1.3-2,2.6-2.7,4
			c-0.6,1.4-0.9,2.6-0.9,3.8c0,1.4,0.4,2.6,1.3,3.6c0.9,1,2.1,1.9,3.5,2.7c1.4,0.8,2.9,1.6,4.5,2.5c1.6,0.8,3.1,1.7,4.5,2.8
			c1.4,1,2.6,2.2,3.5,3.6c0.9,1.4,1.3,3.1,1.3,5.2c0,2-0.5,3.8-1.4,5.4c-0.9,1.6-2.2,2.9-3.7,4c-1.6,1.1-3.3,1.9-5.2,2.5
			C368.2,256.5,366.3,256.8,364.4,256.8z"/>
		<path class="st6" d="M388.4,253.5c-1.3,0-2.4-0.6-3.3-1.8c-0.8-1.2-1.3-2.6-1.3-4.3c0-1.1,0.2-2.4,0.5-3.9
			c0.4-1.5,0.8-2.9,1.4-4.3c0.6-1.4,1.2-2.6,1.8-3.5c0.6-0.9,1.2-1.4,1.7-1.4c0.3,0,0.7,0.1,1.3,0.4c0.6,0.3,1.1,0.7,1.5,1.1
			c-0.4,0.6-0.9,1.6-1.6,2.9c-0.6,1.3-1.1,2.7-1.6,4.2c-0.5,1.5-0.7,2.8-0.7,4c0,0.2,0,0.5,0.1,1.1s0.2,1.1,0.4,1.6
			c0.2,0.5,0.6,0.8,1.2,0.8c0.7,0,1.4-0.4,2.1-1.1c0.8-0.7,1.5-1.7,2.3-2.8c0.8-1.2,1.6-2.4,2.3-3.7c0.8-1.3,1.4-2.6,2.1-3.9
			c0.6-1.3,1.1-2.3,1.5-3.2c0.4,0,0.8,0.1,1.4,0.3c0.6,0.2,1.1,0.4,1.5,0.6c0.4,0.3,0.6,0.6,0.6,1.1c0,0.1-0.2,0.6-0.6,1.4
			c-0.4,0.8-0.8,1.8-1.3,3c-0.5,1.2-0.9,2.4-1.3,3.6c-0.4,1.2-0.6,2.3-0.6,3.3c0,0.5,0.1,1,0.3,1.4c0.2,0.4,0.6,0.6,1.3,0.6
			c0.8,0,1.8-0.4,2.9-1.1c1.1-0.7,2.3-1.8,3.5-3.2c1.2-1.4,2.3-3.1,3.2-5l0.9,0.7c-0.9,2.1-2,4-3.3,5.7c-1.4,1.7-2.8,3-4.4,4
			c-1.6,1-3.1,1.4-4.6,1.4c-1.1,0-2-0.3-2.6-0.8c-0.6-0.5-0.9-1.2-1.1-2.1c-0.2-0.8-0.3-1.7-0.4-2.6c0-0.2,0-0.4,0-0.6
			c0-0.2,0-0.4,0-0.6c-0.7,1.1-1.4,2.1-2.2,3.1c-0.8,1-1.6,1.8-2.5,2.5C390.3,253.1,389.4,253.5,388.4,253.5z"/>
		<path class="st6" d="M420.7,253.2c-1.4,0-2.6-0.4-3.5-1.1c-0.9-0.8-1.3-1.8-1.3-3.1c0-1.1,0.3-2.3,0.8-3.5
			c0.5-1.3,1.1-2.5,1.7-3.7c0.6-1.2,0.9-2.3,0.9-3.2c0-0.9-0.3-1.7-0.9-2.3c-0.6-0.6-1.3-1.1-2.1-1.5c-0.9,2.2-1.8,4.2-2.9,6.2
			c-1.1,2-1.9,3.6-2.6,4.7l-0.9-1.7c0.5-1,1.3-2.5,2.2-4.3c0.9-1.9,1.8-4,2.6-6.3c-0.4-0.4-0.6-0.9-0.6-1.6c0-1,0.3-2,0.9-2.9
			c0.6-0.9,1.2-1.3,1.8-1.3c0.5,0,0.8,0.3,1,0.8c0.2,0.5,0.3,0.9,0.3,1.1c0,0.2-0.1,0.5-0.3,1.1c-0.2,0.5-0.3,0.9-0.4,1.1
			c0,0.4,0.4,0.9,1,1.3c0.6,0.4,1.4,0.9,2.2,1.4c0.8,0.5,1.5,1.2,2.2,2.1c0.6,0.8,0.9,1.9,0.9,3.1c0,1.1-0.3,2.3-0.8,3.5
			c-0.5,1.2-1,2.3-1.5,3.3c-0.5,1-0.8,1.9-0.8,2.6c0,0.5,0.1,0.9,0.4,1.1c0.3,0.2,0.6,0.3,1,0.3c0.9,0,1.9-0.3,2.9-0.9
			c1-0.6,2-1.3,3-2.2c1-0.9,1.8-1.8,2.6-2.8c0.7-1,1.3-1.9,1.7-2.7l1.4,1.1c-0.7,1.7-1.8,3.3-3.2,5c-1.4,1.6-3,3-4.7,4
			C424.2,252.7,422.4,253.2,420.7,253.2z"/>
		<path class="st6" d="M435.4,254c-1.4,0-2.5-0.7-3-2c-0.6-1.3-0.9-3-0.9-5.1c0-0.4,0-1.2,0.1-2.3c0-1.1,0.1-2.7,0.2-4.7
			c0-1.2,0.2-2,0.4-2.4c0.2-0.4,0.8-0.6,1.8-0.6c0.9,0,1.5,0.2,1.7,0.6c0.2,0.4,0.3,1.1,0.3,2.3c0,1.2,0,2.4-0.1,3.8
			c-0.1,1.3-0.1,2.6-0.1,3.9c0,1.2,0.1,2.1,0.2,2.7c0.1,0.6,0.4,0.9,0.9,0.9c0.7,0,1.5-0.4,2.3-1.1c0.8-0.8,1.7-1.7,2.5-2.9
			c0.8-1.2,1.6-2.5,2.4-3.9c0.8-1.4,1.4-2.7,2-4c0.1-2.7,0.4-4.4,0.9-5.3c0.5-0.9,1.3-1.3,2.1-1.3c1,0,1.6,0.3,2,0.9
			c0.4,0.6,0.5,1.2,0.5,1.6c0,0.6-0.2,1.1-0.5,1.6s-0.6,1.1-0.9,1.9c-0.3,0.8-0.5,2.1-0.5,3.8c0,0.5,0,1.1,0.1,1.8
			c0.1,0.6,0.3,1.2,0.7,1.6c0.4,0.4,0.9,0.7,1.7,0.7c0.8,0,1.5-0.3,2.3-1c0.7-0.6,1.5-1.8,2.3-3.4l0.6,0.5c-0.9,2.2-1.9,3.7-3,4.5
			c-1.1,0.9-2.2,1.3-3.2,1.3c-1.3,0-2.3-0.5-3.1-1.6c-0.8-1-1.4-2.3-1.8-3.9c-0.9,1.8-2,3.5-3.2,5.2c-1.2,1.7-2.4,3.2-3.7,4.3
			S436.7,254,435.4,254z"/>
		<path class="st6" d="M459.8,253.5c-1.7,0-3-0.5-3.9-1.5c-0.9-1-1.3-2.2-1.3-3.7c0-0.9,0.2-2,0.5-3.4c0.3-1.4,0.8-2.8,1.3-4.3
			c0.6-1.5,1.2-2.9,2-4.3c0.7-1.3,1.5-2.4,2.4-3.3c0.9-0.8,1.7-1.3,2.6-1.3c0.5,0,0.9,0.1,1.2,0.4c0.4,0.3,0.5,0.7,0.5,1.3
			c0,0.5-0.3,1.3-0.9,2.3c-0.6,1-1.3,2.2-2.1,3.5c-0.8,1.3-1.5,2.7-2.1,4.1c-0.6,1.4-0.9,2.8-0.9,4.1c0,1.3,0.2,2.1,0.7,2.5
			c0.4,0.4,1.1,0.6,2,0.6c1.3,0,2.8-0.7,4.3-2c1.6-1.3,3.2-3.7,4.9-7l0.9,0.9c-1.4,3.4-3.1,6.1-5.2,8
			C464.5,252.5,462.3,253.5,459.8,253.5z M466.8,227c-0.7,0-1.4-0.2-2-0.6c-0.6-0.4-0.9-0.9-0.9-1.7c0-0.9,0.5-1.7,1.5-2.4
			c1-0.7,2.1-1,3.2-1c0.7,0,1.3,0.2,1.8,0.5c0.5,0.3,0.7,0.9,0.7,1.7s-0.5,1.6-1.3,2.4C468.8,226.6,467.8,227,466.8,227z"/>
		<path class="st6" d="M473.8,254c-1.4,0-2.5-0.7-3-2c-0.6-1.3-0.9-3-0.9-5.1c0-0.4,0-1.2,0.1-2.3c0-1.1,0.1-2.7,0.2-4.7
			c0-1.2,0.2-2,0.4-2.4c0.2-0.4,0.8-0.6,1.8-0.6c0.9,0,1.5,0.2,1.7,0.6c0.2,0.4,0.3,1.1,0.3,2.3c0,1.2,0,2.4-0.1,3.8
			c-0.1,1.3-0.1,2.6-0.1,3.9c0,1.2,0.1,2.1,0.2,2.7c0.1,0.6,0.4,0.9,0.9,0.9c0.7,0,1.5-0.4,2.3-1.1c0.8-0.8,1.7-1.7,2.5-2.9
			c0.8-1.2,1.6-2.5,2.4-3.9c0.8-1.4,1.4-2.7,2-4c0.1-2.7,0.4-4.4,0.9-5.3c0.5-0.9,1.3-1.3,2.1-1.3c1,0,1.6,0.3,2,0.9
			c0.4,0.6,0.5,1.2,0.5,1.6c0,0.6-0.2,1.1-0.5,1.6s-0.6,1.1-0.9,1.9c-0.3,0.8-0.5,2.1-0.5,3.8c0,0.5,0,1.1,0.1,1.8
			c0.1,0.6,0.3,1.2,0.7,1.6c0.4,0.4,0.9,0.7,1.7,0.7c0.8,0,1.5-0.3,2.3-1c0.7-0.6,1.5-1.8,2.3-3.4l0.6,0.5c-0.9,2.2-1.9,3.7-3,4.5
			c-1.1,0.9-2.2,1.3-3.2,1.3c-1.3,0-2.3-0.5-3.1-1.6c-0.8-1-1.4-2.3-1.8-3.9c-0.9,1.8-2,3.5-3.2,5.2c-1.2,1.7-2.4,3.2-3.7,4.3
			S475.1,254,473.8,254z"/>
		<path class="st6" d="M496.8,254.5c-1.3,0-2.4-0.4-3.4-1.3c-1-0.9-1.4-2.1-1.4-3.9c0-1.4,0.3-2.9,0.9-4.5c0.6-1.6,1.5-3.2,2.6-4.8
			c1.1-1.6,2.3-3,3.8-4.3c1.4-1.3,2.9-2.3,4.5-3.1c1.6-0.8,3.2-1.2,4.8-1.2c1.7,0,3.1,0.4,4.3,1.3c1.2,0.9,1.8,2,1.8,3.4
			c0,1.1-0.4,1.8-1.1,2.3c-0.7,0.5-1.6,0.6-2.6,0.4c0.1-0.4,0.1-0.7,0.2-1.1s0.1-0.7,0.1-1.1c0-0.8-0.2-1.5-0.5-2.1
			c-0.3-0.6-1-0.9-2-0.9c-1.1,0-2.2,0.4-3.3,1.1c-1.1,0.7-2.2,1.7-3.3,2.9c-1,1.2-2,2.5-2.8,3.9c-0.8,1.4-1.5,2.8-1.9,4.2
			c-0.5,1.4-0.7,2.6-0.7,3.7c0,1.3,0.4,1.9,1.3,1.9s1.9-0.4,3-1.3s2.2-2,3.3-3.3c1.1-1.3,2.2-2.7,3.2-4.1c1-1.4,1.9-2.6,2.6-3.5
			c0.1-0.2,0.3-0.3,0.5-0.3c0.2,0,0.5,0.1,0.9,0.3c0.4,0.1,0.9,0.3,1.3,0.6c0.4,0.3,0.6,0.6,0.6,1.1c0,0.4-0.2,0.9-0.5,1.5
			c-0.3,0.6-0.7,1.3-1.2,2c-0.5,0.7-0.8,1.4-1.2,2.2c-0.3,0.7-0.5,1.4-0.5,2.1c0,0.5,0.1,1,0.4,1.4c0.3,0.4,0.7,0.7,1.3,0.7
			c0.9,0,2.3-0.7,4-2.1c1.7-1.4,3.4-3.7,5.2-7.1l1.1,1.1c-0.9,2.1-2.1,4-3.4,5.6c-1.3,1.6-2.7,2.9-4.1,3.8c-1.4,0.9-2.9,1.4-4.4,1.4
			c-1.6,0-2.8-0.5-3.6-1.5c-0.8-1-1.2-2.1-1.3-3.3c0-0.1,0-0.1,0-0.2c0,0,0-0.1,0-0.1c-1.6,1.9-3,3.4-4.3,4.5
			C499.7,253.9,498.3,254.5,496.8,254.5z"/>
		<path class="st6" d="M524.6,253.5c-1.8,0-3.1-0.6-3.8-1.8c-0.7-1.2-1.1-2.7-1.1-4.4c0-1.9,0.4-4.2,1.1-6.7s1.6-5.3,2.8-8.1
			c1.2-2.8,2.4-5.6,3.8-8.3c1.4-2.7,2.8-5.2,4.2-7.4c1.4-2.2,2.7-3.9,3.9-5.2c1.2-1.3,2.2-2,2.9-2c0.5,0,0.9,0.3,1.3,0.8
			c0.4,0.5,0.6,1.2,0.8,1.9c0.2,0.7,0.3,1.4,0.3,2c0,1.1-0.3,2.4-0.8,4.1c-0.5,1.7-1.3,3.6-2.2,5.6c-1,2-2.1,4.1-3.4,6.2
			c-1.3,2.1-2.8,4.2-4.3,6.1c-1.6,1.9-3.3,3.6-5.1,5c-0.2,1-0.3,1.9-0.4,2.9c-0.1,1-0.2,1.8-0.2,2.6c0,1.4,0.2,2.4,0.7,3.1
			c0.5,0.6,1.1,1,1.8,1c1,0,2-0.5,3-1.4c1-0.9,2-2.1,3-3.5c1-1.4,1.8-2.9,2.5-4.4l1.4,0.8c-1.7,3.5-3.6,6.2-5.6,8.2
			C529,252.5,526.9,253.5,524.6,253.5z M526,237.6c1.3-1.4,2.6-3,3.8-4.7c1.2-1.7,2.3-3.4,3.3-5.2s1.9-3.5,2.6-5.1
			c0.7-1.6,1.3-3.1,1.7-4.4c0.4-1.3,0.6-2.4,0.7-3.1c0,0,0-0.1,0-0.1c0,0,0,0,0-0.1c-0.3,0-0.8,0.4-1.5,1.3
			c-0.7,0.9-1.5,2.1-2.4,3.6s-1.9,3.3-2.9,5.2c-1,2-2,4-2.9,6.2C527.5,233.3,526.7,235.5,526,237.6z"/>
	</g>
</g>
<rect x="56.9" y="301.5" class="st7" width="516" height="264.2"/>
<text transform="matrix(1 0 0 1 61.8982 318.6749)"><tspan x="0" y="0" class="st8 st9 st10">At this primal, reactionary level, your main concern is </tspan><tspan x="13.1" y="29.4" class="st8 st9 st10">basic survival. Your primary focus is on paying bills </tspan><tspan x="-0.4" y="58.8" class="st8 st9 st10">and handling basic necessities like groceries. Running </tspan><tspan x="11.9" y="88.2" class="st8 st9 st10">into problems can feel like a life or death situation.</tspan><tspan x="177.2" y="147.1" class="st8 st3 st10">How to ascend:  </tspan><tspan x="12.5" y="176.5" class="st8 st9 st10">Develop your skills for physical survival so you can </tspan><tspan x="17.3" y="205.9" class="st8 st9 st10">expand your consciousness to consider the larger </tspan><tspan x="159.2" y="235.3" class="st8 st9 st10">society around you.</tspan></text>
</svg>
