<?xml version="1.0" encoding="utf-8"?>
<!-- Generator: Adobe Illustrator 16.0.0, SVG Export Plug-In . SVG Version: 6.00 Build 0)  -->
<!DOCTYPE svg PUBLIC "-//W3C//DTD SVG 1.1//EN" "http://www.w3.org/Graphics/SVG/1.1/DTD/svg11.dtd">
<svg version="1.1" id="Layer_1" xmlns="http://www.w3.org/2000/svg" xmlns:xlink="http://www.w3.org/1999/xlink" x="0px" y="0px"
	 width="454.97px" height="400px" viewBox="0 0 454.97 400" enable-background="new 0 0 454.97 400" xml:space="preserve">
<path opacity="0.2" fill="#4C1E1E" d="M445.639,294.914c-3.37-2.266-8.829-0.637-11.037-0.348c-0.894,0.117-2.526,0.447-4.149,0.795
	c2.324-1.299,4.898-2.521,7.17-3.467c4.238-1.764,8.248-3.023,9.354-3.713c1.105-0.705-0.641-2.982-0.641-2.982
	c-1.742-2.48-9.684-1.32-13.01,0.771c-3.328,2.09-11.078,4.023-11.078,4.023c-0.073-0.381,2.408-9.367,2.481-11.996
	c0.075-2.641-2.128-12.008-2.481-14.063c-0.344-2.053-1.235-2.127-1.235-2.127c-1.254-0.027-2.119,0.512-2.724,1.357
	c-0.771-1.924-2.443-2.51-3.01-1.432c-0.846,1.627-0.697,1.627-4.563,7.201c-3.876,5.576-5.576,6.971-12.863,9.137
	c-7.275,2.164-9.599,6.969-14.087,7.127c-4.498,0.148-18.047-8.521-32.915-15.725c-14.87-7.201-29.506-12.545-32.525-19.515
	c-3.021-6.97-2.323-22.536-5.111-39.03c-2.788-16.496-2.092-46.232-8.829-57.384c-6.738-11.151-13.707-15.101-27.414-17.656
	c-13.707-2.556-25.788-12.313-29.737-18.586c-1.295-2.056-2.265-4.761-2.983-7.468c-1.479-5.563-0.321-11.524,3.237-16.047
	c0.323-0.413,0.666-0.86,1.024-1.344c1.101-1.488,2.209-4.247,3.256-7.887c0.257,0.724,0.974,2.068,2.74,1.815
	c2.394-0.341,2.735-3.831,3.897-7.045c1.164-3.216,7.115-7.799,8.143-15.529c0.759-5.722-2.121-8.962-5.475-9.304
	c-1.944-0.199-3.447,0.662-4.371,1.42c0.523-5.379,0.873-10.889,0.985-16.208c0.466-21.838-20.444-25.1-30.202-25.333
	c-9.758,0.233-30.666,3.495-30.201,25.333c0.111,5.319,0.461,10.829,0.983,16.208c-0.922-0.758-2.425-1.619-4.371-1.42
	c-3.352,0.342-6.231,3.582-5.472,9.304c1.025,7.73,6.977,12.313,8.141,15.529c1.162,3.214,1.504,6.704,3.899,7.045
	c1.765,0.253,2.481-1.091,2.739-1.815c1.048,3.64,2.154,6.399,3.257,7.887c0.358,0.484,0.698,0.931,1.022,1.344
	c3.561,4.523,4.717,10.484,3.238,16.047c-0.719,2.707-1.689,5.412-2.984,7.468c-3.949,6.273-16.029,16.03-29.736,18.586
	c-13.707,2.555-20.677,6.505-27.414,17.656c-6.737,11.152-6.041,40.888-8.828,57.384c-2.788,16.494-2.092,32.061-5.112,39.03
	c-3.02,6.97-17.657,12.313-32.525,19.515c-14.869,7.203-28.418,15.873-32.916,15.725c-4.488-0.158-6.812-4.963-14.088-7.127
	c-7.286-2.166-8.986-3.561-12.861-9.137c-3.866-5.574-3.718-5.574-4.564-7.201c-0.566-1.078-2.239-0.492-3.01,1.432
	c-0.604-0.846-1.468-1.385-2.723-1.357c0,0-0.893,0.074-1.236,2.127c-0.353,2.055-2.556,11.422-2.481,14.063
	c0.074,2.629,2.555,11.615,2.481,11.996c0,0-7.75-1.934-11.078-4.023c-3.326-2.092-11.267-3.252-13.009-0.771
	c0,0-1.747,2.277-0.642,2.982c1.106,0.689,5.115,1.949,9.354,3.713c2.272,0.945,4.845,2.168,7.169,3.467
	c-1.623-0.348-3.253-0.678-4.149-0.795c-2.207-0.289-7.667-1.918-11.035,0.348c-2.158,1.453-1.685,3.428-1.104,3.951
	c0.58,0.521,6.97,0.58,9.293,1.277c1.436,0.432,5.642,1.438,9.209,2.377c-2.085-0.014-4.841-0.021-5.937,0.023
	c-1.859,0.078-3.679,0.27-4.26,2.246c0,0-0.174,0.754,1.105,0.93c1.277,0.174,8.944,1.568,11.383,1.684
	c2.44,0.115,11.45-0.654,11.45-0.654h-0.002c1.899,0.172,4.35-0.455,5.57-0.742c1.737-0.408,8.884-2.322,12.257-1.561
	c0,0-8.001,14.357-8.15,18.855c-0.158,4.488,4.33,16.105,7.435,19.979c3.095,3.867,17.191,9.443,22.144,13.477
	c4.954,4.021,23.856,16.568,40.583,22.451c16.727,5.891,107.176,6.42,107.176,6.42s90.448-0.529,107.176-6.42
	c16.728-5.883,35.629-18.43,40.582-22.451c4.953-4.033,19.052-9.609,22.146-13.477c3.104-3.873,7.591-15.49,7.434-19.979
	c-0.148-4.498-8.149-18.855-8.149-18.855c3.373-0.762,10.519,1.152,12.258,1.561c1.218,0.287,3.67,0.914,5.569,0.742h-0.002
	c0,0,9.011,0.77,11.449,0.654c2.44-0.115,10.106-1.51,11.385-1.684c1.277-0.176,1.103-0.93,1.103-0.93
	c-0.581-1.977-2.401-2.168-4.259-2.246c-1.096-0.045-3.854-0.037-5.938-0.023c3.568-0.939,7.774-1.945,9.209-2.377
	c2.323-0.697,8.713-0.756,9.293-1.277C447.323,298.342,447.797,296.367,445.639,294.914 M44.879,287.988
	c-0.696,4.023-3.643,3.252-5.186-0.551c-0.743-1.813-1.893-5.514-2.093-9.211c-0.12-2.217,0.602-4.432,0.56-6.232
	c1.311,3.01,2.909,5.631,3.624,7.164C42.862,281.48,45.576,283.955,44.879,287.988 M180.092,272.031
	c-1.168,5.01-2.594,9.641-4.106,13.813c-4.991,13.77-19.458,21.695-33.785,18.656c-13.85-2.939-31.458-6.283-44.352-7.377
	c0,0,34.384-11.385,51.808-16.961c17.425-5.576,16.495-9.99,18.819-20.212c2.323-10.224,11.616-45.229,11.616-45.229
	S185.36,249.422,180.092,272.031 M312.77,304.5c-14.327,3.039-28.793-4.887-33.784-18.656c-1.512-4.172-2.938-8.803-4.105-13.813
	c-5.27-22.609,0-57.311,0-57.311s9.293,35.006,11.615,45.229c2.324,10.222,1.396,14.636,18.818,20.212
	c17.426,5.576,51.809,16.961,51.809,16.961C344.228,298.217,326.62,301.561,312.77,304.5 M417.372,278.227
	c-0.199,3.697-1.351,7.398-2.094,9.211c-1.543,3.803-4.488,4.574-5.186,0.551c-0.698-4.033,2.016-6.508,3.094-8.83
	c0.717-1.533,2.314-4.154,3.624-7.164C416.769,273.795,417.491,276.01,417.372,278.227"/>
</svg>
